<mxfile host="app.diagrams.net" modified="2022-06-22T02:37:38.164Z" agent="5.0 (Windows NT 10.0; Win64; x64) AppleWebKit/537.36 (KHTML, like Gecko) Chrome/102.0.0.0 Safari/537.36" etag="WgL_c1T8IRYvIhv4MrLT" version="20.0.1" type="github">
  <diagram id="NpKbrCOyFWIJ7LJldYlP" name="Page-1">
    <mxGraphModel dx="700" dy="752" grid="1" gridSize="10" guides="1" tooltips="1" connect="1" arrows="1" fold="1" page="1" pageScale="1" pageWidth="827" pageHeight="1169" math="0" shadow="0">
      <root>
        <mxCell id="0" />
        <mxCell id="1" parent="0" />
        <mxCell id="nzrPVY5r-qo1LfHR2gQ8-1" value="Socio" style="swimlane;fontStyle=1;align=center;verticalAlign=top;childLayout=stackLayout;horizontal=1;startSize=26;horizontalStack=0;resizeParent=1;resizeParentMax=0;resizeLast=0;collapsible=1;marginBottom=0;" vertex="1" parent="1">
          <mxGeometry x="140" y="170" width="220" height="154" as="geometry" />
        </mxCell>
        <mxCell id="nzrPVY5r-qo1LfHR2gQ8-2" value="- nombre: String&#xa;- legajo: String&#xa;- email: String" style="text;strokeColor=none;fillColor=none;align=left;verticalAlign=top;spacingLeft=4;spacingRight=4;overflow=hidden;rotatable=0;points=[[0,0.5],[1,0.5]];portConstraint=eastwest;" vertex="1" parent="nzrPVY5r-qo1LfHR2gQ8-1">
          <mxGeometry y="26" width="220" height="94" as="geometry" />
        </mxCell>
        <mxCell id="nzrPVY5r-qo1LfHR2gQ8-3" value="" style="line;strokeWidth=1;fillColor=none;align=left;verticalAlign=middle;spacingTop=-1;spacingLeft=3;spacingRight=3;rotatable=0;labelPosition=right;points=[];portConstraint=eastwest;" vertex="1" parent="nzrPVY5r-qo1LfHR2gQ8-1">
          <mxGeometry y="120" width="220" height="8" as="geometry" />
        </mxCell>
        <mxCell id="nzrPVY5r-qo1LfHR2gQ8-4" value="+ getters/setters" style="text;strokeColor=none;fillColor=none;align=left;verticalAlign=top;spacingLeft=4;spacingRight=4;overflow=hidden;rotatable=0;points=[[0,0.5],[1,0.5]];portConstraint=eastwest;" vertex="1" parent="nzrPVY5r-qo1LfHR2gQ8-1">
          <mxGeometry y="128" width="220" height="26" as="geometry" />
        </mxCell>
        <mxCell id="nzrPVY5r-qo1LfHR2gQ8-5" value="Biblioteca" style="swimlane;fontStyle=1;align=center;verticalAlign=top;childLayout=stackLayout;horizontal=1;startSize=26;horizontalStack=0;resizeParent=1;resizeParentMax=0;resizeLast=0;collapsible=1;marginBottom=0;" vertex="1" parent="1">
          <mxGeometry x="530" y="120" width="260" height="200" as="geometry" />
        </mxCell>
        <mxCell id="nzrPVY5r-qo1LfHR2gQ8-6" value="+ field: type" style="text;strokeColor=none;fillColor=none;align=left;verticalAlign=top;spacingLeft=4;spacingRight=4;overflow=hidden;rotatable=0;points=[[0,0.5],[1,0.5]];portConstraint=eastwest;" vertex="1" parent="nzrPVY5r-qo1LfHR2gQ8-5">
          <mxGeometry y="26" width="260" height="26" as="geometry" />
        </mxCell>
        <mxCell id="nzrPVY5r-qo1LfHR2gQ8-7" value="" style="line;strokeWidth=1;fillColor=none;align=left;verticalAlign=middle;spacingTop=-1;spacingLeft=3;spacingRight=3;rotatable=0;labelPosition=right;points=[];portConstraint=eastwest;" vertex="1" parent="nzrPVY5r-qo1LfHR2gQ8-5">
          <mxGeometry y="52" width="260" height="8" as="geometry" />
        </mxCell>
        <mxCell id="nzrPVY5r-qo1LfHR2gQ8-8" value="+ agregarSocio(socio:Socio)&#xa;+ exportarSocios():String&#xa;+ getExporter(): VoorheesExporter&#xa;+ setExporter(exporter: VoorheesExporter)" style="text;strokeColor=none;fillColor=none;align=left;verticalAlign=top;spacingLeft=4;spacingRight=4;overflow=hidden;rotatable=0;points=[[0,0.5],[1,0.5]];portConstraint=eastwest;" vertex="1" parent="nzrPVY5r-qo1LfHR2gQ8-5">
          <mxGeometry y="60" width="260" height="140" as="geometry" />
        </mxCell>
        <mxCell id="nzrPVY5r-qo1LfHR2gQ8-9" value="" style="endArrow=diamondThin;endFill=1;endSize=24;html=1;rounded=0;entryX=1.009;entryY=0.585;entryDx=0;entryDy=0;entryPerimeter=0;exitX=-0.006;exitY=0.885;exitDx=0;exitDy=0;exitPerimeter=0;" edge="1" parent="1" source="nzrPVY5r-qo1LfHR2gQ8-6" target="nzrPVY5r-qo1LfHR2gQ8-2">
          <mxGeometry width="160" relative="1" as="geometry">
            <mxPoint x="420" y="290" as="sourcePoint" />
            <mxPoint x="580" y="290" as="targetPoint" />
          </mxGeometry>
        </mxCell>
        <mxCell id="nzrPVY5r-qo1LfHR2gQ8-10" value="0..*&lt;br&gt;-socios" style="text;html=1;align=center;verticalAlign=middle;resizable=0;points=[];autosize=1;strokeColor=none;fillColor=none;" vertex="1" parent="1">
          <mxGeometry x="380" y="240" width="50" height="30" as="geometry" />
        </mxCell>
        <mxCell id="nzrPVY5r-qo1LfHR2gQ8-11" value="VoorheesExporter&#xa;" style="swimlane;fontStyle=1;align=center;verticalAlign=top;childLayout=stackLayout;horizontal=1;startSize=50;horizontalStack=0;resizeParent=1;resizeParentMax=0;resizeLast=0;collapsible=1;marginBottom=0;" vertex="1" parent="1">
          <mxGeometry x="440" y="490" width="320" height="150" as="geometry" />
        </mxCell>
        <mxCell id="nzrPVY5r-qo1LfHR2gQ8-13" value="" style="line;strokeWidth=1;fillColor=none;align=left;verticalAlign=middle;spacingTop=-1;spacingLeft=3;spacingRight=3;rotatable=0;labelPosition=right;points=[];portConstraint=eastwest;" vertex="1" parent="nzrPVY5r-qo1LfHR2gQ8-11">
          <mxGeometry y="50" width="320" height="8" as="geometry" />
        </mxCell>
        <mxCell id="nzrPVY5r-qo1LfHR2gQ8-14" value="- exportar(socio: Socio): String&#xa;- exportar(socios: &lt;Socio&gt;): String" style="text;strokeColor=none;fillColor=none;align=left;verticalAlign=top;spacingLeft=4;spacingRight=4;overflow=hidden;rotatable=0;points=[[0,0.5],[1,0.5]];portConstraint=eastwest;" vertex="1" parent="nzrPVY5r-qo1LfHR2gQ8-11">
          <mxGeometry y="58" width="320" height="92" as="geometry" />
        </mxCell>
        <mxCell id="nzrPVY5r-qo1LfHR2gQ8-15" value="" style="endArrow=open;endFill=1;endSize=12;html=1;rounded=0;exitX=0.396;exitY=1.021;exitDx=0;exitDy=0;exitPerimeter=0;entryX=0.446;entryY=0;entryDx=0;entryDy=0;entryPerimeter=0;" edge="1" parent="1" source="nzrPVY5r-qo1LfHR2gQ8-8" target="nzrPVY5r-qo1LfHR2gQ8-11">
          <mxGeometry width="160" relative="1" as="geometry">
            <mxPoint x="630" y="330" as="sourcePoint" />
            <mxPoint x="580" y="280" as="targetPoint" />
          </mxGeometry>
        </mxCell>
        <mxCell id="nzrPVY5r-qo1LfHR2gQ8-16" value="1 &lt;br&gt;-expoter" style="text;html=1;align=center;verticalAlign=middle;resizable=0;points=[];autosize=1;strokeColor=none;fillColor=none;" vertex="1" parent="1">
          <mxGeometry x="590" y="450" width="60" height="30" as="geometry" />
        </mxCell>
        <mxCell id="nzrPVY5r-qo1LfHR2gQ8-17" value="JsonSimpleExporterAdapter" style="swimlane;fontStyle=1;align=center;verticalAlign=top;childLayout=stackLayout;horizontal=1;startSize=26;horizontalStack=0;resizeParent=1;resizeParentMax=0;resizeLast=0;collapsible=1;marginBottom=0;" vertex="1" parent="1">
          <mxGeometry x="240" y="820" width="340" height="100" as="geometry" />
        </mxCell>
        <mxCell id="nzrPVY5r-qo1LfHR2gQ8-19" value="" style="line;strokeWidth=1;fillColor=none;align=left;verticalAlign=middle;spacingTop=-1;spacingLeft=3;spacingRight=3;rotatable=0;labelPosition=right;points=[];portConstraint=eastwest;" vertex="1" parent="nzrPVY5r-qo1LfHR2gQ8-17">
          <mxGeometry y="26" width="340" height="8" as="geometry" />
        </mxCell>
        <mxCell id="nzrPVY5r-qo1LfHR2gQ8-20" value="+ exportar(socio:Socio):String&#xa;+ exportar(socios:&lt;Socio&gt;):String" style="text;strokeColor=none;fillColor=none;align=left;verticalAlign=top;spacingLeft=4;spacingRight=4;overflow=hidden;rotatable=0;points=[[0,0.5],[1,0.5]];portConstraint=eastwest;" vertex="1" parent="nzrPVY5r-qo1LfHR2gQ8-17">
          <mxGeometry y="34" width="340" height="66" as="geometry" />
        </mxCell>
        <mxCell id="nzrPVY5r-qo1LfHR2gQ8-21" value="" style="endArrow=block;dashed=1;endFill=0;endSize=12;html=1;rounded=0;exitX=0.457;exitY=0.012;exitDx=0;exitDy=0;exitPerimeter=0;entryX=0.231;entryY=0.989;entryDx=0;entryDy=0;entryPerimeter=0;" edge="1" parent="1" source="nzrPVY5r-qo1LfHR2gQ8-17" target="nzrPVY5r-qo1LfHR2gQ8-14">
          <mxGeometry width="160" relative="1" as="geometry">
            <mxPoint x="420" y="570" as="sourcePoint" />
            <mxPoint x="580" y="570" as="targetPoint" />
          </mxGeometry>
        </mxCell>
        <mxCell id="nzrPVY5r-qo1LfHR2gQ8-22" value="JacksonExporterAdapter" style="swimlane;fontStyle=1;align=center;verticalAlign=top;childLayout=stackLayout;horizontal=1;startSize=26;horizontalStack=0;resizeParent=1;resizeParentMax=0;resizeLast=0;collapsible=1;marginBottom=0;" vertex="1" parent="1">
          <mxGeometry x="620" y="820" width="340" height="100" as="geometry" />
        </mxCell>
        <mxCell id="nzrPVY5r-qo1LfHR2gQ8-23" value="" style="line;strokeWidth=1;fillColor=none;align=left;verticalAlign=middle;spacingTop=-1;spacingLeft=3;spacingRight=3;rotatable=0;labelPosition=right;points=[];portConstraint=eastwest;" vertex="1" parent="nzrPVY5r-qo1LfHR2gQ8-22">
          <mxGeometry y="26" width="340" height="8" as="geometry" />
        </mxCell>
        <mxCell id="nzrPVY5r-qo1LfHR2gQ8-24" value="+ exportar(socio:Socio):String&#xa;+ exportar(socios:&lt;Socio&gt;):String" style="text;strokeColor=none;fillColor=none;align=left;verticalAlign=top;spacingLeft=4;spacingRight=4;overflow=hidden;rotatable=0;points=[[0,0.5],[1,0.5]];portConstraint=eastwest;" vertex="1" parent="nzrPVY5r-qo1LfHR2gQ8-22">
          <mxGeometry y="34" width="340" height="66" as="geometry" />
        </mxCell>
        <mxCell id="nzrPVY5r-qo1LfHR2gQ8-25" value="" style="endArrow=block;dashed=1;endFill=0;endSize=12;html=1;rounded=0;" edge="1" parent="1" source="nzrPVY5r-qo1LfHR2gQ8-22" target="nzrPVY5r-qo1LfHR2gQ8-14">
          <mxGeometry width="160" relative="1" as="geometry">
            <mxPoint x="405.3800000000001" y="831.2" as="sourcePoint" />
            <mxPoint x="523.9200000000001" y="648.988" as="targetPoint" />
          </mxGeometry>
        </mxCell>
      </root>
    </mxGraphModel>
  </diagram>
</mxfile>
